<svg xmlns="http://www.w3.org/2000/svg" xmlns:xlink="http://www.w3.org/1999/xlink" version="1.1" x="0px" y="0px" viewBox="0 0 100 100" enable-background="new 0 0 100 100" xml:space="preserve"><path fill="#000000" d="M93.978,22.513c-0.004-0.025-0.008-0.05-0.012-0.075c-0.018-0.114-0.042-0.228-0.073-0.34  c-0.006-0.019-0.011-0.039-0.016-0.058c-0.037-0.125-0.082-0.247-0.135-0.368c-0.012-0.024-0.024-0.048-0.036-0.072  c-0.028-0.06-0.056-0.12-0.088-0.179c-0.019-0.033-0.04-0.063-0.06-0.095c-0.019-0.032-0.037-0.062-0.058-0.094  c-0.065-0.1-0.135-0.196-0.209-0.286c-0.006-0.007-0.012-0.016-0.018-0.023c-0.087-0.103-0.18-0.197-0.276-0.286  c-0.019-0.017-0.038-0.033-0.059-0.049c-0.086-0.076-0.176-0.145-0.27-0.21c-0.019-0.013-0.036-0.026-0.055-0.039  c-0.11-0.073-0.226-0.138-0.343-0.196c-0.008-0.003-0.015-0.009-0.021-0.013l-20.518-9.854L51.217,0.423  c-0.848-0.407-1.834-0.407-2.683,0l-20.517,9.854L7.5,20.13c-0.007,0.003-0.014,0.008-0.021,0.012  c-0.119,0.059-0.234,0.124-0.345,0.197c-0.019,0.012-0.036,0.025-0.055,0.038c-0.093,0.064-0.183,0.134-0.27,0.21  c-0.02,0.017-0.04,0.033-0.059,0.05c-0.096,0.088-0.189,0.182-0.275,0.284c-0.008,0.01-0.015,0.02-0.023,0.03  c-0.072,0.088-0.14,0.182-0.204,0.278C6.23,21.263,6.21,21.295,6.19,21.328c-0.019,0.031-0.04,0.061-0.058,0.093  c-0.032,0.058-0.058,0.116-0.085,0.175c-0.013,0.026-0.027,0.051-0.039,0.078c-0.053,0.12-0.098,0.242-0.134,0.365  c-0.006,0.021-0.011,0.043-0.017,0.065c-0.03,0.11-0.055,0.221-0.072,0.332c-0.004,0.027-0.009,0.053-0.013,0.08  c-0.018,0.134-0.028,0.268-0.028,0.401c0,0.002,0,0.005,0,0.007v25.243v0.104v25.242c0,1.126,0.611,2.164,1.596,2.71l19.928,11.051  c0.178,0.163,0.373,0.31,0.589,0.431L48.373,99.08c0.001,0.001,0.002,0.002,0.004,0.002c0.109,0.062,0.223,0.114,0.339,0.161  c0.02,0.008,0.039,0.015,0.059,0.021c0.092,0.035,0.188,0.065,0.285,0.094c0.03,0.008,0.062,0.016,0.092,0.023  c0.089,0.021,0.179,0.038,0.271,0.052c0.03,0.004,0.061,0.01,0.091,0.014c0.119,0.014,0.238,0.022,0.36,0.022  s0.242-0.009,0.36-0.022c0.031-0.004,0.061-0.01,0.092-0.014c0.092-0.014,0.183-0.03,0.271-0.052  c0.03-0.008,0.062-0.016,0.092-0.023c0.098-0.028,0.192-0.059,0.286-0.094c0.019-0.007,0.039-0.014,0.059-0.021  c0.115-0.047,0.229-0.1,0.338-0.161c0.002,0,0.003-0.001,0.005-0.002l20.517-11.376c0.217-0.121,0.411-0.268,0.588-0.431  l19.929-11.051c0.984-0.546,1.596-1.584,1.596-2.71V48.271v-0.104V22.923c0-0.001,0-0.003,0-0.005  C94.007,22.783,93.995,22.648,93.978,22.513z M11.94,28.184l14.32,7.941v18.262l-14.32-7.941V28.184z M29.358,16.506l13.772,6.615  l-13.772,7.637l-13.772-7.637L29.358,16.506z M70.392,16.506l13.772,6.615l-13.772,7.637L56.62,23.121L70.392,16.506z   M49.875,67.482l-14.129-7.835l14.129-7.835l14.128,7.835L49.875,67.482z M67.294,54.387l-14.32-7.941V28.184l14.32,7.941V54.387z   M46.777,46.445l-14.321,7.941V36.125l14.321-7.941V46.445z M32.457,64.907l14.321,7.942V91.11l-14.321-7.94V64.907z M52.974,72.849  l14.32-7.941V83.17l-14.32,7.94V72.849z M73.49,54.387V36.125l14.321-7.941v18.262L73.49,54.387z M49.875,6.652l13.361,6.417  l-13.361,6.417l-13.361-6.417L49.875,6.652z M11.94,53.53l14.32,7.941v18.159l-14.32-7.941V53.53z M73.49,79.631V61.472  l14.321-7.941v18.159L73.49,79.631z"></path></svg>